# xmcd CD database file
#
# Track frame offsets:
#	150
#	22262
#	45456
#	74223
#	90545
#	126504
#	147366
#	165211
#
# Disc length: 2463 seconds
#
# Revision: 0
# Processed by: cddbd v1.5.1PL2 Copyright (c) Steve Scherf et al.
# Submitted via: CDex 1.51
#
DISCID=72099d08
DTITLE=オフコース - over
DYEAR=1981
DGENRE=JPop
TTITLE0=心はなれて
TTITLE1=愛の中へ
TTITLE2=君におくる歌
TTITLE3=ひととして
TTITLE4=メインストリートをつっ走れ
TTITLE5=僕のいいたいこと
TTITLE6=哀しいくらい
TTITLE7=言葉にできない
EXTD=YEAR: 1981
EXTT0=
EXTT1=
EXTT2=
EXTT3=
EXTT4=
EXTT5=
EXTT6=
EXTT7=
PLAYORDER=
